<svg viewBox="0 0 520 290" width="520" height="290" preserveAspectRatio="xMidYMid meet" xmlns="http://www.w3.org/2000/svg" role="presentation"><text x="101" y="26" font-family="Raleway, system-ui, sans-serif" font-size="15" fill="#0E244E" text-anchor="middle">Lenas Würfel</text><rect x="20" y="40" width="54" height="54" rx="0" fill="#FBEBBF" stroke="#0E244E" stroke-width="1.3"/><text x="47" y="67" font-family="Raleway, system-ui, sans-serif" font-size="22" fill="#0E244E" text-anchor="middle" dominant-baseline="middle">3</text><rect x="74" y="40" width="54" height="54" rx="0" fill="#DDE8C6" stroke="#0E244E" stroke-width="1.3"/><text x="101" y="67" font-family="Raleway, system-ui, sans-serif" font-size="22" fill="#0E244E" text-anchor="middle" dominant-baseline="middle">5</text><rect x="128" y="40" width="54" height="54" rx="0" fill="#FBEBBF" stroke="#0E244E" stroke-width="1.3"/><text x="155" y="67" font-family="Raleway, system-ui, sans-serif" font-size="22" fill="#0E244E" text-anchor="middle" dominant-baseline="middle">3</text><rect x="74" y="94" width="54" height="54" rx="0" fill="#E6ECF8" stroke="#0E244E" stroke-width="1.3"/><text x="101" y="121" font-family="Raleway, system-ui, sans-serif" font-size="22" fill="#0E244E" text-anchor="middle" dominant-baseline="middle">7</text><rect x="74" y="148" width="54" height="54" rx="0" fill="#DDE8C6" stroke="#0E244E" stroke-width="1.3"/><text x="101" y="175" font-family="Raleway, system-ui, sans-serif" font-size="22" fill="#0E244E" text-anchor="middle" dominant-baseline="middle">5</text><rect x="74" y="202" width="54" height="54" rx="0" fill="#E6ECF8" stroke="#0E244E" stroke-width="1.3"/><text x="101" y="229" font-family="Raleway, system-ui, sans-serif" font-size="22" fill="#0E244E" text-anchor="middle" dominant-baseline="middle">7</text><text x="381" y="26" font-family="Raleway, system-ui, sans-serif" font-size="15" fill="#0E244E" text-anchor="middle">Mias Würfel</text><rect x="300" y="40" width="54" height="54" rx="0" fill="#E6ECF8" stroke="#0E244E" stroke-width="1.3"/><text x="327" y="67" font-family="Raleway, system-ui, sans-serif" font-size="22" fill="#0E244E" text-anchor="middle" dominant-baseline="middle">4</text><rect x="354" y="40" width="54" height="54" rx="0" fill="#F2CFCB" stroke="#0E244E" stroke-width="1.3"/><text x="381" y="67" font-family="Raleway, system-ui, sans-serif" font-size="22" fill="#0E244E" text-anchor="middle" dominant-baseline="middle">6</text><rect x="408" y="40" width="54" height="54" rx="0" fill="#E6ECF8" stroke="#0E244E" stroke-width="1.3"/><text x="435" y="67" font-family="Raleway, system-ui, sans-serif" font-size="22" fill="#0E244E" text-anchor="middle" dominant-baseline="middle">4</text><rect x="354" y="94" width="54" height="54" rx="0" fill="#E6ECF8" stroke="#0E244E" stroke-width="1.3"/><text x="381" y="121" font-family="Raleway, system-ui, sans-serif" font-size="22" fill="#0E244E" text-anchor="middle" dominant-baseline="middle">4</text><rect x="354" y="148" width="54" height="54" rx="0" fill="#F2CFCB" stroke="#0E244E" stroke-width="1.3"/><text x="381" y="175" font-family="Raleway, system-ui, sans-serif" font-size="22" fill="#0E244E" text-anchor="middle" dominant-baseline="middle">6</text><rect x="354" y="202" width="54" height="54" rx="0" fill="#E6ECF8" stroke="#0E244E" stroke-width="1.3"/><text x="381" y="229" font-family="Raleway, system-ui, sans-serif" font-size="22" fill="#0E244E" text-anchor="middle" dominant-baseline="middle">4</text></svg>